<svg xmlns="http://www.w3.org/2000/svg" width="226.412" height="30" viewBox="0 0 226.412 30">
  <g id="logo_black" transform="translate(-2538 -7476)">
    <path id="Path_169249" data-name="Path 169249" d="M12.8,0h-1.66V-6.719H3.623V0H1.963V-14.277h1.66V-8.2h7.52v-6.074H12.8Zm8.358.2A4.917,4.917,0,0,1,17.416-1.25a5.6,5.6,0,0,1-1.372-4.014,6.205,6.205,0,0,1,1.274-4.111A4.233,4.233,0,0,1,20.741-10.9a4.036,4.036,0,0,1,3.184,1.323A5.072,5.072,0,0,1,25.1-6.084v1.025H17.724A4.243,4.243,0,0,0,18.676-2.2a3.293,3.293,0,0,0,2.544.977,8.621,8.621,0,0,0,3.418-.723V-.5a8.579,8.579,0,0,1-1.626.532A9.138,9.138,0,0,1,21.161.2Zm-.439-9.736a2.647,2.647,0,0,0-2.056.84,3.871,3.871,0,0,0-.9,2.324h5.6a3.564,3.564,0,0,0-.684-2.349A2.406,2.406,0,0,0,20.722-9.541ZM29.646,0H28.025V-15.2h1.621Zm8.583.2A4.632,4.632,0,0,1,36.32-.19a3.59,3.59,0,0,1-1.45-1.187h-.117A14.356,14.356,0,0,1,34.87.4V4.8H33.249V-10.7h1.318l.225,1.465h.078a3.765,3.765,0,0,1,1.455-1.27,4.423,4.423,0,0,1,1.9-.391,3.956,3.956,0,0,1,3.286,1.455,6.406,6.406,0,0,1,1.157,4.082,6.369,6.369,0,0,1-1.177,4.1A3.963,3.963,0,0,1,38.229.2ZM38-9.521a2.873,2.873,0,0,0-2.373.908,4.673,4.673,0,0,0-.752,2.891v.361a5.356,5.356,0,0,0,.752,3.228,2.86,2.86,0,0,0,2.412.972,2.508,2.508,0,0,0,2.173-1.123,5.325,5.325,0,0,0,.786-3.1,5.126,5.126,0,0,0-.786-3.071A2.586,2.586,0,0,0,38-9.521ZM57.388-13a4.668,4.668,0,0,0-3.716,1.567,6.322,6.322,0,0,0-1.362,4.292,6.448,6.448,0,0,0,1.313,4.331,4.669,4.669,0,0,0,3.745,1.528,12.787,12.787,0,0,0,3.408-.537V-.361A10.5,10.5,0,0,1,57.114.2a6.2,6.2,0,0,1-4.868-1.914,7.882,7.882,0,0,1-1.714-5.439,8.585,8.585,0,0,1,.825-3.867,5.924,5.924,0,0,1,2.383-2.559,7.212,7.212,0,0,1,3.667-.9,8.848,8.848,0,0,1,3.926.82l-.7,1.426A7.567,7.567,0,0,0,57.388-13ZM68.334.2A4.917,4.917,0,0,1,64.589-1.25a5.6,5.6,0,0,1-1.372-4.014,6.205,6.205,0,0,1,1.274-4.111A4.233,4.233,0,0,1,67.914-10.9,4.036,4.036,0,0,1,71.1-9.575a5.072,5.072,0,0,1,1.172,3.491v1.025H64.9A4.243,4.243,0,0,0,65.848-2.2a3.293,3.293,0,0,0,2.544.977,8.621,8.621,0,0,0,3.418-.723V-.5a8.579,8.579,0,0,1-1.626.532A9.138,9.138,0,0,1,68.334.2Zm-.439-9.736a2.647,2.647,0,0,0-2.056.84,3.871,3.871,0,0,0-.9,2.324h5.6a3.564,3.564,0,0,0-.684-2.349A2.406,2.406,0,0,0,67.894-9.541ZM82.522,0V-6.924a2.793,2.793,0,0,0-.6-1.953,2.427,2.427,0,0,0-1.865-.645,3.076,3.076,0,0,0-2.461.908,4.585,4.585,0,0,0-.781,3V0H75.2V-10.7h1.318l.264,1.465h.078a3.31,3.31,0,0,1,1.4-1.226,4.537,4.537,0,0,1,2-.435,4.065,4.065,0,0,1,2.91.933,3.969,3.969,0,0,1,.977,2.983V0ZM91.1-1.143a5.3,5.3,0,0,0,.83-.063,5.373,5.373,0,0,0,.635-.132V-.1a2.963,2.963,0,0,1-.776.21A5.83,5.83,0,0,1,90.861.2q-3.105,0-3.105-3.271V-9.443H86.222v-.781l1.533-.674.684-2.285h.938v2.48h3.105v1.26H89.377v6.3a2.167,2.167,0,0,0,.459,1.484A1.6,1.6,0,0,0,91.1-1.143ZM99.385.2A4.917,4.917,0,0,1,95.64-1.25a5.6,5.6,0,0,1-1.372-4.014,6.205,6.205,0,0,1,1.274-4.111A4.233,4.233,0,0,1,98.965-10.9a4.036,4.036,0,0,1,3.184,1.323,5.072,5.072,0,0,1,1.172,3.491v1.025H95.948A4.243,4.243,0,0,0,96.9-2.2a3.293,3.293,0,0,0,2.544.977,8.621,8.621,0,0,0,3.418-.723V-.5a8.579,8.579,0,0,1-1.626.532A9.138,9.138,0,0,1,99.385.2Zm-.439-9.736a2.647,2.647,0,0,0-2.056.84,3.871,3.871,0,0,0-.9,2.324h5.6a3.564,3.564,0,0,0-.684-2.349A2.406,2.406,0,0,0,98.946-9.541ZM111.132-10.9a6.343,6.343,0,0,1,1.279.117l-.225,1.5a5.522,5.522,0,0,0-1.172-.146,2.853,2.853,0,0,0-2.222,1.055,3.846,3.846,0,0,0-.923,2.627V0H106.25V-10.7h1.338l.186,1.982h.078a4.7,4.7,0,0,1,1.436-1.611A3.232,3.232,0,0,1,111.132-10.9Z" transform="translate(2652 7499)" fill="#323a45"/>
    <g id="Group_87081" data-name="Group 87081" transform="translate(2574 7482)">
      <path id="Path_104672" data-name="Path 104672" d="M61.9,26.12c.423-.165.93-.413,1.352-.578.507-.248.93-.5,1.437-.743a12.91,12.91,0,0,0,1.352-.908,12.888,12.888,0,0,0,1.1-.991H69.59V38.506H66.125V27.194a8.865,8.865,0,0,1-1.521.826,14.284,14.284,0,0,1-1.69.661Z" transform="translate(-61.9 -20.918)" fill="#323a45"/>
      <path id="Path_104673" data-name="Path 104673" d="M87.993,30.474A10.13,10.13,0,0,1,86.472,36.5a5.357,5.357,0,0,1-8.451,0A10.13,10.13,0,0,1,76.5,30.474a13.95,13.95,0,0,1,.423-3.468,7.989,7.989,0,0,1,1.183-2.56,4.82,4.82,0,0,1,1.859-1.569,5.543,5.543,0,0,1,2.366-.578,4.92,4.92,0,0,1,4.225,2.064C87.57,25.768,87.993,27.915,87.993,30.474Zm-3.549,0a17.55,17.55,0,0,0-.085-2.147,8.159,8.159,0,0,0-.338-1.651,2.65,2.65,0,0,0-.676-1.073,1.628,1.628,0,0,0-1.1-.413,1.8,1.8,0,0,0-1.1.413,2.65,2.65,0,0,0-.676,1.073,4.789,4.789,0,0,0-.338,1.651,16.882,16.882,0,0,0-.085,2.147,16.882,16.882,0,0,0,.085,2.147,7.1,7.1,0,0,0,.338,1.651,2.65,2.65,0,0,0,.676,1.073,1.628,1.628,0,0,0,1.1.413,1.8,1.8,0,0,0,1.1-.413,2.65,2.65,0,0,0,.676-1.073,8.16,8.16,0,0,0,.338-1.651A16.236,16.236,0,0,0,84.444,30.474Z" transform="translate(-64.162 -20.814)" fill="#323a45"/>
      <path id="Path_104674" data-name="Path 104674" d="M103.654,24.551c.169.578.423,1.321.592,2.064.254.743.423,1.569.676,2.394l.761,2.477c.254.826.507,1.569.761,2.312.169-.743.423-1.569.592-2.477s.423-1.817.592-2.807.338-1.9.507-2.89.338-1.9.507-2.725h3.718c-.507,2.642-1.183,5.284-1.859,7.927-.676,2.725-1.437,5.2-2.282,7.679h-3.3c-.507-1.4-1.1-2.972-1.606-4.541s-1.014-3.138-1.521-4.789c-.507,1.569-1.014,3.138-1.437,4.789s-1.014,3.055-1.521,4.541h-3.3q-1.268-3.592-2.282-7.679C92.583,28.1,91.907,25.46,91.4,22.9h3.887l.507,2.725c.169.991.338,1.9.592,2.89.169.991.423,1.9.592,2.807a17.573,17.573,0,0,0,.676,2.477c.254-.743.507-1.486.845-2.312l.761-2.477c.254-.826.507-1.651.676-2.394s.423-1.486.592-2.064Z" transform="translate(-66.47 -20.918)" fill="#323a45"/>
      <path id="Path_104675" data-name="Path 104675" d="M117.2,33.375a6.561,6.561,0,0,1,.507-2.725,6.729,6.729,0,0,1,1.268-1.982,5.388,5.388,0,0,1,1.859-1.156,6.4,6.4,0,0,1,2.113-.413A5.29,5.29,0,0,1,127,28.669a6.178,6.178,0,0,1,1.521,4.541v.661a1.779,1.779,0,0,1-.085.661h-7.775a2.333,2.333,0,0,0,1.014,1.651,4,4,0,0,0,2.366.578A14.135,14.135,0,0,0,125.9,36.6a6.674,6.674,0,0,0,1.521-.413l.423,2.725a3.992,3.992,0,0,1-.761.248l-1.014.248a5.1,5.1,0,0,1-1.183.165,6.543,6.543,0,0,1-1.268.083,7.739,7.739,0,0,1-2.873-.5,5.707,5.707,0,0,1-2.028-1.321,5.213,5.213,0,0,1-1.183-1.982A8.341,8.341,0,0,1,117.2,33.375Zm8.028-1.321a2.875,2.875,0,0,0-.169-.826,3.325,3.325,0,0,0-.423-.743,1.312,1.312,0,0,0-.676-.5,1.867,1.867,0,0,0-1.014-.165,3.709,3.709,0,0,0-1.014.165,4.68,4.68,0,0,0-.676.5,2.152,2.152,0,0,0-.423.743c-.085.33-.169.578-.254.826Z" transform="translate(-70.468 -21.65)" fill="#323a45"/>
      <path id="Path_104676" data-name="Path 104676" d="M145.024,32.142a8.14,8.14,0,0,1-.423,2.56,5,5,0,0,1-1.268,1.982,4.862,4.862,0,0,1-1.944,1.239,8.834,8.834,0,0,1-2.7.413,6.544,6.544,0,0,1-1.268-.083c-.423-.083-.93-.083-1.352-.165l-1.268-.248c-.423-.083-.761-.165-1.1-.248V21.078l3.465-.578v5.862a6.116,6.116,0,0,1,2.535-.578,6.586,6.586,0,0,1,2.282.413,6.321,6.321,0,0,1,1.69,1.239,6.308,6.308,0,0,1,1.014,1.982A9.647,9.647,0,0,1,145.024,32.142Zm-3.465-.083c0-2.147-.845-3.22-2.451-3.22a4.333,4.333,0,0,0-1.014.165,2.565,2.565,0,0,0-.845.33v6.11c.169,0,.423.083.676.083h.845a2.651,2.651,0,0,0,2.113-.908A5.034,5.034,0,0,0,141.559,32.06Z" transform="translate(-73.024 -20.5)" fill="#323a45"/>
    </g>
    <g id="Group_87082" data-name="Group 87082" transform="translate(2538 7476)">
      <path id="Path_104677" data-name="Path 104677" d="M23.559,25.782l9.958-10.114a.655.655,0,0,1,.928,0L48.792,30.325a.68.68,0,0,1,0,.943l-.084.086a3.023,3.023,0,0,1-4.3,0L34.277,21.068a.655.655,0,0,0-.928,0l-5.654,5.743a3.023,3.023,0,0,1-4.3,0A1.108,1.108,0,0,1,23.559,25.782Z" transform="translate(-18.981 -15.475)" fill="#323a45"/>
      <path id="Path_104678" data-name="Path 104678" d="M43.681,37.736,33.724,47.85a.655.655,0,0,1-.928,0L18.365,33.193a.68.68,0,0,1,0-.943h0a3.023,3.023,0,0,1,4.3,0l10.042,10.2a.655.655,0,0,0,.928,0l5.654-5.743a3.023,3.023,0,0,1,4.3,0h0A.715.715,0,0,1,43.681,37.736Z" transform="translate(-18.175 -18.043)" fill="#323a45"/>
      <path id="Path_104679" data-name="Path 104679" d="M36.654,31.832l-2.447-2.486a2,2,0,0,1,0-2.657l.084-.086a1.768,1.768,0,0,1,2.616,0l5.063,5.143a.68.68,0,0,1,0,.943l-4.895,4.971a1.768,1.768,0,0,1-2.616,0h0a1.834,1.834,0,0,1,0-2.657l2.278-2.314A.672.672,0,0,0,36.654,31.832Z" transform="translate(-20.599 -17.132)" fill="#323a45"/>
      <path id="Path_104680" data-name="Path 104680" d="M32.866,32.261l-.844-.857a1.768,1.768,0,0,0-2.616,0h0a2,2,0,0,0,0,2.657h0a1.768,1.768,0,0,0,2.616,0l.844-.857A.68.68,0,0,0,32.866,32.261Z" transform="translate(-19.849 -17.817)" fill="#323a45"/>
    </g>
  </g>
</svg>
